# AST/ASF file generated using VICON BodyLanguage
# -----------------------------------------------
:version 1.10
:name VICON
:units
  mass 1.0
  length 0.45
  angle deg
:documentation
   .ast/.asf automatically generated from VICON data using
   VICON BodyBuilder and BodyLanguage model FoxedUp or BRILLIANT.MOD
:root
   order TX TY TZ RX RY RZ
   axis XYZ
   position 0 0 0  
   orientation 0 0 0 
:bonedata
  begin
     id 1 
     name lhipjoint
     direction 0.558404 -0.748506 0.357664 
     length 2.4234 
     axis 0 0 0  XYZ
  end
  begin
     id 2 
     name lfemur
     direction 0.34202 -0.939693 0  
     length 7.14567  
     axis 0 0 20  XYZ
    dof rx ry rz
    limits (-160.0 20.0)
           (-70.0 70.0)
           (-60.0 70.0)
  end
  begin
     id 3 
     name ltibia
     direction 0.34202 -0.939693 0   
     length 8.13956   
     axis 0 0 20   XYZ
    dof rx
    limits (-10.0 170.0)
  end
  begin
     id 4 
     name lfoot
     direction 0.0791314 -0.217412 0.972867   
     length 2.00134   
     axis -90 7.62852e-016 20   XYZ
    dof rx rz
    limits (-45.0 90.0)
           (-70.0 20.0)
  end
  begin
     id 5 
     name ltoes
     direction 1.53547e-011 -4.21922e-011 1   
     length 1.00735   
     axis -90 7.62852e-016 20   XYZ
    dof rx
    limits (-90.0 20.0)
  end
  begin
     id 6 
     name rhipjoint
     direction -0.496392 -0.78327 0.374276   
     length 2.31584  
     axis 0 0 0  XYZ 
  end
  begin
     id 7 
     name rfemur
     direction -0.34202 -0.939693 0   
     length 7.47417   
     axis 0 0 -20   XYZ
    dof rx ry rz
    limits (-160.0 20.0)
           (-70.0 70.0)
           (-70.0 60.0)
  end
  begin
     id 8 
     name rtibia
     direction -0.34202 -0.939693 0   
     length 7.69071   
     axis 0 0 -20   XYZ
    dof rx
    limits (-10.0 170.0)
 end
 begin
     id 9 
     name rfoot
     direction -0.103069 -0.28318 0.953512   
     length 2.16135  
     axis -90 -7.62852e-016 -20   XYZ
    dof rx rz
    limits (-45.0 90.0)
           (-20.0 70.0)
  end
  begin
     id 10 
     name rtoes
     direction -1.53581e-011 -4.21904e-011 1   
     length 1.07867   
     axis -90 -7.62852e-016 -20   XYZ
    dof rx
    limits (-90.0 20.0)
  end
  begin
     id 11 
     name lowerback
     direction -0.0258961 0.994776 -0.0987407   
     length 2.19412   
     axis 0 0 0   XYZ
    dof rx ry rz
    limits (-20.0 45.0)
           (-30.0 30.0)
           (-30.0 30.0)
  end
  begin
     id 12 
     name upperback
     direction 0.0402454 0.999185 0.00320666   
     length 2.18445   
     axis 0 0 0   XYZ
    dof rx ry rz
    limits (-20.0 45.0)
           (-30.0 30.0)
           (-30.0 30.0)
  end
  begin
     id 13 
     name thorax
     direction 0.0519376 0.997415 0.0496558   
     length 2.21487   
     axis 0 0 0   XYZ
    dof rx ry rz
    limits (-20.0 45.0)
           (-30.0 30.0)
           (-30.0 30.0)
  end
  begin
     id 14 
     name lowerneck
     direction -0.0921276 0.983211 0.157506   
     length 1.61201   
     axis 0 0 0   XYZ
    dof rx ry rz
    limits (-20.0 45.0)
           (-30.0 30.0)
           (-30.0 30.0)
  end
  begin
     id 15 
     name upperneck
     direction 0.0820814 0.98162 -0.172292   
     length 1.65275   
     axis 0 0 0   XYZ
    dof rx ry rz
    limits (-20.0 45.0)
           (-30.0 30.0)
           (-30.0 30.0)
  end
  begin
     id 16
     name head
     direction 0.0336554 0.996413 -0.0776455  
     length 1.66415  
     axis 0 0 0   XYZ
    dof rx ry rz
    limits (-20.0 45.0)
           (-30.0 30.0)
           (-30.0 30.0)
  end
  begin
     id 17 
     name lclavicle
     direction 0.94696 0.284418 -0.149576  
     length 3.41447  
     axis 0 0 0   XYZ
    dof ry rz
    limits (-20.0 10.0)
           (0.0 20.0)
  end
  begin
     id 18 
     name lhumerus
     direction 1 -0.000130264 -9.81312e-005   
     length 5.19964   
     axis 180 -30 -90   XYZ
    dof rx ry rz
    limits (-60.0 90.0)
           (-90.0 90.0)
           (-90.0 90.0)
  end
  begin
     id 19
     name lradius
     direction 1 -4.48961e-011 1.43854e-026   
     length 3.32189   
     axis 180 -30 -90   XYZ
    dof rx
    limits (-10.0 170.0)
  end
  begin
     id 20
     name lwrist
     direction 1 -4.48958e-011 3.1502e-026   
     length 1.66095   
     axis -1.97692e-014 90 90   XYZ
    dof ry
    limits (-180.0 0.0)
 end
  begin
     id 21 
     name lhand
     direction 1 -4.48927e-011 6.3004e-026   
     length 0.645616   
     axis -4.02019e-014 90 90   XYZ
    dof rx rz
    limits (-90.0 90.0)
           (-45.0 45.0)
  end
  begin
     id 22 
     name lfingers
     direction 1 -4.4904e-011 1.26008e-025   
     length 0.520512   
     axis -8.04039e-014 90 90   XYZ
    dof rx
    limits (0.0 90.0)
  end
  begin
     id 23
     name lthumb
     direction 0.707107 -6.34947e-011 0.707107   
     length 0.747354   
     axis -90 45 2.85299e-015   XYZ
    dof rx rz
    limits (-45.0 45.0)
           (-45.0 45.0)
  end
  begin
     id 24 
     name rclavicle
     direction -0.909391 0.383475 -0.161107   
     length 3.25176  
     axis 0 0 0   XYZ 
    dof ry rz
    limits (-10.0 20.0)
           (-20.0 0.0)
  end
  begin
     id 25 
     name rhumerus
     direction -1 -4.48965e-011 -1.81384e-027  
     length 5.6595   
     axis 180 30 90   XYZ
    dof rx ry rz
    limits (-90.0 60.0)
           (-90.0 90.0)
           (-90.0 90.0)
  end
  begin
     id 26 
     name rradius
     direction -1 -4.48996e-011 -8.09397e-027   
     length 3.37604   
     axis 180 30 90   XYZ
    dof rx
    limits (-10.0 170.0)
  end
  begin
     id 27 
     name rwrist
     direction -1 -4.48927e-011 -1.56669e-026   
     length 1.68802   
     axis 1.21142e-014 -90 -90   XYZ
    dof ry
    limits (-180.0 0.0)
  end
  begin
     id 28
     name rhand
     direction -1 -4.48912e-011 -3.13339e-026   
     length 0.824702   
     axis 1.99937e-014 -90 -90   XYZ
    dof rx rz
    limits (-90.0 90.0)
           (-45.0 45.0)
  end
  begin
     id 29
     name rfingers
     direction -1 -4.49011e-011 -6.26677e-026   
     length 0.664896   
     axis 3.99874e-014 -90 -90   XYZ
    dof rx
    limits (0.0 90.0)
  end
  begin
     id 30
     name rthumb
     direction -0.707107 -6.34931e-011 0.707107   
     length 0.954662   
     axis -90 -45 -2.85299e-015   XYZ
    dof rx rz
    limits (-45.0 45.0)
           (-45.0 45.0)
  end
:hierarchy
  begin
    root lhipjoint rhipjoint lowerback
    lhipjoint lfemur
    lfemur ltibia
    ltibia lfoot
    lfoot ltoes
    rhipjoint rfemur
    rfemur rtibia
    rtibia rfoot
    rfoot rtoes
    lowerback upperback
    upperback thorax
    thorax lowerneck lclavicle rclavicle
    lowerneck upperneck
    upperneck head
    lclavicle lhumerus
    lhumerus lradius
    lradius lwrist
    lwrist lhand lthumb
    lhand lfingers
    rclavicle rhumerus
    rhumerus rradius
    rradius rwrist
    rwrist rhand rthumb
    rhand rfingers
  end

#!OML:ASF F:\VICON\USERDATA\INSTALL\rory3\rory3.ASF
:FULLY-SPECIFIED
:DEGREES
376
root 3.48325 18.2518 -10.6685 21.0539 -26.5156 -22.4217
lowerback 10.8115 2.29418 3.31907
upperback -0.0099902 4.05808 10.6674
thorax -6.70499 2.0473 8.97329
lowerneck -9.24562 -7.6175 -13.6426
upperneck 24.9683 -12.1509 14.3589
head 11.3533 -5.44779 5.97242
rclavicle 1.98785e-016 9.46215e-014
rhumerus -18.3579 6.43768 -47.7694
rradius 97.6209
rwrist -11.0559
rhand -17.1848 23.3121
rfingers 7.12502
rthumb 9.05699 -6.47346
lclavicle 1.98785e-016 9.46215e-014
lhumerus -31.1927 22.3962 3.02437
lradius 24.9975
lwrist -6.84427
lhand -9.90272 41.189
lfingers 7.12502
lthumb 16.0773 70.542
rfemur 15.2959 -1.42648 18.6129
rtibia 28.4793
rfoot 22.7154 -12.4609
rtoes 24.8234
lfemur -53.8424 14.0378 -5.69233
ltibia 41.2005
lfoot -12.2387 1.23436
ltoes -4.20975
377
root 3.41705 18.2321 -10.2459 20.3748 -26.0639 -22.7825
lowerback 10.4225 1.98949 3.26004
upperback -0.139662 3.64794 11.2749
thorax -6.62107 1.86077 9.79117
lowerneck -8.22655 -7.41114 -14.7571
upperneck 25.5106 -11.8417 14.3203
head 11.3737 -5.46402 6.25166
rclavicle 2.24627e-014 -7.79236e-014
rhumerus -17.7914 7.45989 -46.6883
rradius 97.2591
rwrist -11.5737
rhand -18.4084 23.8876
rfingers 7.12502
rthumb 7.87613 -5.94569
lclavicle 2.24627e-014 -7.79236e-014
lhumerus -32.5145 19.9079 2.05262
lradius 25.2562
lwrist -6.15116
lhand -10.0218 41.1253
lfingers 7.12502
lthumb 15.9626 70.4876
rfemur 17.1315 -1.19409 18.0861
rtibia 29.1585
rfoot 23.7692 -11.8618
rtoes 24.6079
lfemur -52.8073 13.5334 -4.93633
ltibia 38.1351
lfoot -12.7058 2.23966
ltoes -6.46792
378
root 3.35455 18.1981 -9.80976 19.3799 -25.9426 -23.0624
lowerback 10.3269 1.79566 3.21622
upperback -0.180401 3.39574 11.6891
thorax -6.60789 1.74637 10.3484
lowerneck -8.41184 -7.41466 -14.8905
upperneck 26.8873 -11.7177 13.3587
head 11.8661 -5.51011 5.96441
rclavicle -1.25234e-014 -6.99722e-014
rhumerus -17.4396 8.31706 -45.7953
rradius 96.7006
rwrist -12.3675
rhand -19.82 24.479
rfingers 7.12502
rthumb 6.51356 -5.40086
lclavicle -1.25234e-014 -6.99722e-014
lhumerus -33.5313 17.2216 1.24367
lradius 25.6731
lwrist -5.33559
lhand -10.117 40.9088
lfingers 7.12502
lthumb 15.871 70.2783
rfemur 19.3061 -0.654437 17.2426
rtibia 29.8424
rfoot 24.1556 -11.7755
rtoes 25.268
lfemur -51.3958 13.0543 -4.2188
ltibia 35.4329
lfoot -13.1386 3.29083
ltoes -7.32738
379
root 3.29508 18.1522 -9.34334 18.0866 -26.1349 -23.3738
lowerback 10.2235 1.89152 3.5942
upperback 0.0815468 3.52662 11.7708
thorax -6.26853 1.7892 10.1875
lowerneck -7.34785 -7.43033 -15.3574
upperneck 26.8529 -11.9531 13.8476
head 11.7448 -5.66419 6.23344
rclavicle 1.88845e-014 1.98785e-014
rhumerus -17.7436 8.17822 -45.0974
rradius 96.2265
rwrist -13.1009
rhand -21.2963 24.7601
rfingers 7.12502
rthumb 5.08825 -5.1588
lclavicle 1.88845e-014 1.98785e-014
lhumerus -33.2834 15.5333 0.562109
lradius 25.746
lwrist -5.14825
lhand -10.115 40.3123
lfingers 7.12502
lthumb 15.8729 69.6817
rfemur 21.6796 -0.018751 16.0622
rtibia 30.6656
rfoot 25.0187 -10.8601
rtoes 23.9997
lfemur -49.436 12.1354 -3.12027
ltibia 33.0864
lfoot -13.8705 4.89259
ltoes -6.84017
380
root 3.23694 18.0929 -8.88193 16.916 -26.1071 -23.5181
lowerback 9.85828 2.2289 4.31542
upperback 0.558134 3.94587 11.4806
thorax -5.5353 1.95577 9.34446
lowerneck -6.86844 -7.93107 -15.2503
upperneck 26.365 -12.9257 14.6041
head 11.6892 -6.04046 6.35698
rclavicle 2.10712e-014 -4.13472e-014
rhumerus -18.4504 6.6067 -44.6436
rradius 95.573
rwrist -13.6811
rhand -23.02 24.8473
rfingers 7.12502
rthumb 3.42382 -5.10498
lclavicle 2.10712e-014 -4.13472e-014
lhumerus -31.4942 15.29 0.00946158
lradius 25.483
lwrist -5.70422
lhand -10.0226 39.6914
lfingers 7.12502
lthumb 15.9619 69.0537
rfemur 23.662 0.544374 14.8397
rtibia 31.8762
rfoot 25.3778 -9.74007
rtoes 22.4699
lfemur -47.7195 10.4682 -1.8128
ltibia 30.9464
lfoot -14.7891 7.008
ltoes -6.06475
381
root 3.17927 18.0225 -8.44838 15.9721 -25.9377 -23.5378
lowerback 9.5573 2.51061 4.74319
upperback 1.00948 4.26757 11.2679
thorax -4.87274 2.09432 8.80015
lowerneck -5.8639 -8.36191 -15.5815
upperneck 25.0081 -13.7963 15.8825
head 11.2631 -6.40283 6.76039
rclavicle 1.72943e-014 -1.11319e-014
rhumerus -18.7923 4.93525 -44.2365
rradius 94.6518
rwrist -14.1801
rhand -23.8136 24.9463
rfingers 7.12502
rthumb 2.65734 -5.01692
lclavicle 1.72943e-014 -1.11319e-014
lhumerus -30.0503 14.6007 -0.348659
lradius 25.6157
lwrist -5.44424
lhand -9.9177 39.7204
lfingers 7.12502
lthumb 16.0629 69.0746
rfemur 25.1064 1.34725 13.8836
rtibia 33.4378
rfoot 25.1356 -9.32946
rtoes 21.9095
lfemur -46.5153 8.59911 -0.541275
ltibia 29.1331
lfoot -15.6941 9.2543
ltoes -5.60197
382
root 3.12215 17.9444 -8.03394 15.151 -25.8479 -23.5714
lowerback 9.41877 2.34646 4.47623
upperback 0.739852 4.05188 11.5326
thorax -5.09831 2.00323 9.29784
lowerneck -4.00365 -8.01822 -16.8536
upperneck 25.4874 -13.63 16.4446
head 11.1854 -6.50089 7.32648
rclavicle 5.51627e-014 2.05941e-013
rhumerus -19.1268 5.48198 -43.7318
rradius 93.5299
rwrist -14.6465
rhand -23.7304 25.0587
rfingers 7.12502
rthumb 2.73777 -4.90346
lclavicle 5.51627e-014 2.05941e-013
lhumerus -30.6939 11.479 -0.950836
lradius 26.3766
lwrist -4.27681
lhand -9.88833 40.0516
lfingers 7.12502
lthumb 16.0912 69.4035
rfemur 25.9935 2.53338 13.2646
rtibia 35.6037
rfoot 24.6579 -9.83534
rtoes 22.8864
lfemur -45.4912 6.67897 0.816444
ltibia 27.5563
lfoot -16.4989 11.7346
ltoes -4.75024
383
root 3.06644 17.8422 -7.59591 14.3629 -25.7743 -23.6228
lowerback 8.96809 2.20612 4.44888
upperback 0.66913 3.82289 11.7076
thorax -4.90413 1.8929 9.5587
lowerneck -4.02691 -7.98997 -16.8674
upperneck 26.4394 -13.5848 15.8768
head 11.5031 -6.53181 7.15198
rclavicle -1.25234e-014 5.56597e-015
rhumerus -19.7251 5.93022 -43.1366
rradius 92.6521
rwrist -15.3447
rhand -24.2094 25.1747
rfingers 7.12502
rthumb 2.27512 -4.79293
lclavicle -1.25234e-014 5.56597e-015
lhumerus -30.9614 9.84324 -1.81349
lradius 26.8325
lwrist -4.1334
lhand -9.84333 40.0302
lfingers 7.12502
lthumb 16.1345 69.3786
rfemur 26.7685 3.68802 12.484
rtibia 38.1375
rfoot 24.1941 -9.85492
rtoes 24.3434
lfemur -44.4774 4.55571 2.17079
ltibia 26.3119
lfoot -17.4027 14.4752
ltoes -3.00091
384
root 3.01324 17.7435 -7.15946 13.6284 -25.6005 -23.7375
lowerback 8.47549 2.14779 4.52878
upperback 0.71283 3.693 11.8712
thorax -4.56781 1.8263 9.72677
lowerneck -6.01996 -8.40613 -16.1473
upperneck 28.1854 -13.8602 14.4496
head 12.4917 -6.61384 6.40763
rclavicle -3.3694e-014 3.65764e-014
rhumerus -20.7003 6.19875 -42.3754
rradius 92.0885
rwrist -16.5311
rhand -24.6882 25.1091
rfingers 7.12502
rthumb 1.81268 -4.8629
lclavicle -3.3694e-014 3.65764e-014
lhumerus -30.6251 9.65938 -2.76416
lradius 26.8471
lwrist -4.80458
lhand -9.9911 39.7275
lfingers 7.12502
lthumb 15.9922 69.0874
rfemur 27.0569 4.47998 11.742
rtibia 40.9121
rfoot 25.1 -6.68707
rtoes 16.1775
lfemur -43.6482 2.74234 3.24662
ltibia 25.5254
lfoot -18.2909 16.8776
ltoes -1.67198
385
root 2.95387 17.6286 -6.73572 12.8641 -25.6634 -23.9908
lowerback 8.1955 2.19174 4.5058
upperback 0.754621 3.71904 12.1025
thorax -4.38784 1.84212 10.0097
lowerneck -5.2675 -8.44225 -16.0737
upperneck 28.2024 -13.8783 13.9118
head 12.2912 -6.70049 6.20009
rclavicle 3.28989e-014 8.42847e-014
rhumerus -21.1418 5.43464 -42.0218
rradius 90.4054
rwrist -17.1738
rhand -23.9709 25.2797
rfingers 7.12502
rthumb 2.50551 -4.68528
lclavicle 3.28989e-014 8.42847e-014
lhumerus -30.2993 9.59691 -3.63217
lradius 26.9402
lwrist -5.34493
lhand -10.4576 39.5349
lfingers 7.12502
lthumb 15.543 68.9302
rfemur 27.3504 5.88924 11.4382
rtibia 43.7354
rfoot 25.3258 -5.30837
rtoes 13.5678
lfemur -42.8718 1.88081 3.94984
ltibia 25.2963
lfoot -18.7866 18.4683
ltoes -0.52719
386
root 2.89908 17.4852 -6.3283 12.2498 -25.2734 -24.3199
lowerback 7.86084 2.04187 4.77684
upperback 0.710028 3.51006 12.3104
thorax -4.21427 1.73271 10.125
lowerneck -5.98661 -8.66161 -15.9766
upperneck 29.3803 -14.0713 13.1843
head 12.8973 -6.81709 5.87314
rclavicle 2.43511e-014 1.43125e-014
rhumerus -20.3712 2.7101 -42.5002
rradius 86.7139
rwrist -16.4447
rhand -22.6805 26.2998
rfingers 7.12502
rthumb 3.75161 -3.64692
lclavicle 2.43511e-014 1.43125e-014
lhumerus -30.2388 9.29269 -4.52029
lradius 27.4442
lwrist -5.38531
lhand -10.9857 39.6639
lfingers 7.12502
lthumb 15.0343 69.098
rfemur 27.6079 6.99702 11.2119
rtibia 46.6242
rfoot 25.1497 -5.78901
rtoes 16.832
lfemur -42.6917 2.18533 3.83729
ltibia 25.51
lfoot -18.3221 18.3081
ltoes 0.0452505
387
root 2.8458 17.3329 -5.9177 11.6502 -25.0759 -24.6446
lowerback 7.88822 1.88198 4.85281
upperback 0.362051 3.36159 12.593
thorax -4.59739 1.66811 10.4357
lowerneck -3.87938 -8.37583 -17.4152
upperneck 28.9118 -14.0703 14.3498
head 12.4929 -6.96794 6.66514
rclavicle 3.4191e-014 1.05753e-013
rhumerus -21.5979 2.83831 -42.1173
rradius 85.4282
rwrist -17.4683
rhand -23.2461 26.0957
rfingers 7.12502
rthumb 3.2054 -3.85992
lclavicle 3.4191e-014 1.05753e-013
lhumerus -30.4519 8.33356 -5.32762
lradius 28.1544
lwrist -5.21238
lhand -11.267 39.7523
lfingers 7.12502
lthumb 14.7633 69.2065
rfemur 27.6169 8.15117 10.8734
rtibia 49.5039
rfoot 25.7969 -6.49705
rtoes 21.5738
lfemur -42.5898 3.25161 3.30815
ltibia 26.2004
lfoot -17.8449 17.2208
ltoes 0.330391
